<?xml version="1.0" encoding="UTF-8"?>
<svg enable-background="new 0 0 1080 1080" version="1.1" viewBox="0 0 1080 1080" xml:space="preserve" xmlns="http://www.w3.org/2000/svg">
<style type="text/css">
	.st0{fill:url(#a);}
	.st1{opacity:0.34;}
	.st2{fill:#FFFFFF;}
	.st3{opacity:0.89;}
</style>

	
		<linearGradient id="a" x1="185.05" x2="994.36" y1="224.38" y2="944.01" gradientUnits="userSpaceOnUse">
			<stop stop-color="#B818FE" offset="0"/>
			<stop stop-color="#1D1D1B" offset="1"/>
		</linearGradient>
		<rect class="st0" x=".5" y=".5" width="1079" height="1079"/>
		<path d="M1079,1v1078H1V1H1079 M1080,0H0v1080h1080V0L1080,0z"/>
	


	<g class="st1">
		<path class="st2" d="M95,404.9V135.1h169v36.3H138.3v78.5h121v36.3h-121v82.4H264v36.3H95z"/>
		<path class="st2" d="m472.3 404.9-20.5-72.3h-85.8l-20.5 72.3h-44.1l78.9-269.9h59.2l78.9 269.9h-46.1zm-61.8-226.1h-3.1l-33.2 118.3h69.6l-33.3-118.3z"/>
		<path class="st2" d="m639.4 409.6c-23.5 0-43.2-4.1-59.2-12.2-16-8.2-29.1-19-39.4-32.6l27.8-26.7c10.3 12.4 21.3 21.5 32.9 27.3s24.7 8.7 39.4 8.7c17 0 30.1-3.9 39.2-11.7s13.7-18.9 13.7-33.5c0-11.7-3.4-20.7-10.1-27.1s-18.2-11-34.4-13.8l-29.4-4.6c-12.9-2.1-23.7-5.5-32.5-10.2-8.8-4.8-15.9-10.4-21.3-17s-9.3-13.9-11.8-22-3.7-16.7-3.7-25.7c0-25.5 8.2-44.9 24.7-58.1 16.5-13.3 39.2-19.9 68-19.9 21.4 0 39.6 3.4 54.7 10.1 15.1 6.8 27.3 16.3 36.5 28.5l-27.1 27.1c-7.5-9-16.3-16.3-26.5-21.8s-22.8-8.3-37.7-8.3c-16 0-28.2 3.4-36.5 10.3-8.4 6.9-12.6 16.9-12.6 30.2 0 11.2 3.3 19.9 9.9 26.3s18.2 11 35 13.8l28.6 5c24.2 4.4 41.9 13.2 53 26.5s16.6 29.4 16.6 48.5c0 12.4-2.1 23.7-6.4 34s-10.6 19.1-18.9 26.3c-8.4 7.2-18.7 12.8-30.9 16.8-11.9 3.8-25.9 5.8-41.6 5.8z"/>
		<path class="st2" d="M852,404.9V303.3l-89.7-168.2h48.3l34.4,67.3l27.8,57.6h2.3l28.2-57.6l34.4-67.3H985l-89.7,168.2v101.7H852z"/>
	</g>
	
		<path class="st2" d="m116.4 471.5h35.9l3.6 45.1c0.9 12.6 1.9 29 1.9 29h0.2s5.6-14.4 11.5-27.1l21.7-47h37.2l-21.4 110.8h-24.8l10.5-54.7c1.7-8.7 5.1-23.4 5.1-23.4h-0.3s-6 13.9-9.9 22.3l-25.6 55.8h-22.3l-4.3-55.9c-0.5-6.2-1.1-22.2-1.1-22.2h-0.3s-2.8 16-4.2 23.2l-10.5 54.9h-24.3l21.4-110.8z"/>
		<path class="st2" d="m221.6 561.4c0-19.4 14.4-24.9 33.8-26.3 15.7-1.1 22-2 22-9.8 0-4.5-3.3-7.6-9.9-7.6-7.6 0-12.4 3.4-14.1 10.4h-23.1c2.9-16.4 15.3-27.3 38.4-27.3 9.1 0 17.8 1.5 24 6.4 6.5 4.8 10.1 13.2 7.6 26.2l-7.1 36.6c-1.2 6-0.9 9.6 0.5 11.3v1.1h-23.9c-0.9-1.9-1.2-5.3-1.2-8.7h-0.3c-5.3 6.2-12.4 10.7-21.7 10.7-13.9-0.1-25-8.1-25-23zm50.8-6.7 1.9-9.8c-3.6 1.7-7.6 2.6-13.5 3.6-6.4 1.1-15.2 1.5-15.2 10.7 0 6.2 4.2 9 10.2 9 8.6 0 14.8-4.8 16.6-13.5z"/>
		<path class="st2" d="m317.8 503h23.9l-2.6 13h0.5c5.7-9.3 13-14.3 22.9-14.3 2.6 0 4.6 0.3 5.6 0.6l-4.3 22.3h-0.5c-16-2.3-25.6 3.9-29.3 22.9l-6.7 34.7h-24.8l15.3-79.2z"/>
		<path class="st2" d="m415.6 573.6h-0.3c-5 6.7-12.7 11.2-21.7 11.2-17.8 0-29-12.6-29-33.8 0-24.8 14.9-50.4 40.8-50.4 10.1 0 18.4 4.8 22.5 13.5h0.5l2.2-11.2h23.7l-20.5 105.5h-24.8l6.6-34.8zm7.4-35.9c0-9.8-4-17.7-13.6-17.7-13.6 0-19.5 15.7-19.5 28.7 0 8.8 2.8 16.7 12.9 16.7 12.9 0 20.2-14.2 20.2-27.7z"/>
		<path class="st2" d="m455.6 552.6 9.4-49.6h24.8l-9 46.2c-1.7 9 0.5 15 8.7 15 8.5 0 14.6-6.5 16.7-17.4l8.4-43.9h24.8l-15.4 79.4h-23.7l2.3-11.9h-0.5c-5.9 8.7-13.5 14.3-24.5 14.3-16.6-0.1-26.1-11.8-22-32.1z"/>
		<path class="st2" d="m564.3 549.1c0.2 9.9 3.1 17.5 14.4 17.5 6 0 11.2-2.5 13.6-8.1h24.5c-5 15.3-18.8 26-39.2 26-21.5 0-37.8-12.2-37.8-36.6 0-24.9 17.7-47.4 43.9-47.4 9.1 0 15.7 1.9 21.2 5.3 12.6 7.9 16.7 23.6 13.8 43.2h-54.4zm2-15h29.8c0.3-8.5-3.3-15.7-12.7-15.7-7.9 0.1-14.3 6-17.1 15.7z"/>
		<path class="st2" d="m648.5 549.1c0.2 9.9 3.1 17.5 14.4 17.5 6 0 11.2-2.5 13.6-8.1h24.5c-5 15.3-18.8 26-39.2 26-21.5 0-37.8-12.2-37.8-36.6 0-24.9 17.7-47.4 43.9-47.4 9.1 0 15.7 1.9 21.2 5.3 12.6 7.9 16.7 23.6 13.8 43.2h-54.4zm2-15h29.8c0.3-8.5-3.3-15.7-12.7-15.7-8 0.1-14.3 6-17.1 15.7z"/>
		<path class="st2" d="m772.9 494.4h-31.1l4.3-22.9h89.6l-4.3 22.9h-31.5l-17 87.9h-27l17-87.9z"/>
		<path class="st2" d="m811.6 548.4c0-26 17.8-47.6 45.4-47.6 20.3 0 38.1 11.8 38.3 36.1 0 26.3-17.7 47.9-45.4 47.9-20.2 0-38.3-11.9-38.3-36.4zm58.6-12.3c0-9.1-3.7-17.7-13.9-17.7-14.3 0-19.8 18.3-19.7 31 0 9.5 3.6 17.7 13.8 17.7 14.4 0 19.9-18 19.8-31z"/>
		<path class="st2" d="m910.9 503h23.7l-1.9 10.2h0.3c5.9-7.4 13.9-12.6 24.3-12.6 17.7 0 27.6 14.9 27.6 34.6 0 23.4-11.9 49.6-38.9 49.6-10.2 0-18.8-4.2-23.2-12.9h-0.5l-7.1 36.6h-24.8l20.5-105.5zm48.7 34.1c0-8.2-3.1-16.7-13-16.7-13 0-20 15.7-20 28.4 0 8.5 3.9 17.2 14.1 17.2 13.8-0.1 18.9-16.4 18.9-28.9z"/>
	
	<g class="st3">
		<path class="st2" d="m557 1015.7c-1.3 0.6-3 1-4.9 1-2.2 0-3.9-0.6-5.2-1.7s-2.1-2.9-2.1-5.4v-28.5h17.8v-6.8h-17.8v-13.9l-7.8 2.2v11.7h-9.7v6.7h9.7v30c0.1 3.2 0.7 5.6 1.9 7.5 1.3 1.8 3 3.3 5.1 4.1 2.2 0.9 4.5 1.2 6.9 1.2 2.7 0 5-0.4 7.1-1.2 2.1-0.7 3.9-1.8 5.4-3.2l-2.7-6.6c-1 1.3-2.3 2.3-3.7 2.9z"/>
		<path class="st2" d="m635.9 932.9v-48c0-6-1.2-10.8-3.5-14.7-2.2-4-5.4-6.9-9.4-8.9-3.9-1.9-8.4-2.9-13.4-2.9-4.4 0-8.4 0.7-12.2 2.3-3.7 1.6-6.7 3.9-9.3 7.1-1.3 1.6-2.6 3.5-3.5 5.7l-0.6-13.6h-18v73.1h20.1v-38.7c0-4.9 0.7-8.8 2.3-11.7 1.7-2.9 3.8-5 6.3-6.3 2.7-1.3 5.4-2.1 8-2.1 3.9 0 7.1 1.2 9.5 3.7 2.4 2.3 3.7 6.6 3.7 12.9v42.3h20z"/>
		<path class="st2" d="m654.9 982.2c-1.1-2.3-2.8-4.1-5-5.7-2.9-2.1-6.5-3.2-10.5-3.2s-7.8 1-11.3 3c-3.5 1.9-6.3 4.7-8.5 8.5s-3.2 8.4-3.2 13.8 1 9.9 3 13.6c2.1 3.8 4.7 6.7 8 8.6 3.4 2.1 7.1 3 11.1 3 2.8 0 5.5-0.5 7.9-1.6 2.6-1.1 4.6-2.6 6.3-4.5 1-1.2 1.8-2.6 2.4-4l0.5 9.1h6.8v-71.1h-7.8v30.3h0.3zm-1.9 26c-1.2 2.8-3 5.1-5.4 6.6-2.3 1.6-5 2.3-8 2.3-4.7 0-8.5-1.7-11.2-5.1s-4-7.9-4-13.4 1.3-10.1 4.1-13.4c2.7-3.4 6.6-5.1 11.4-5.1 3 0 5.6 0.7 7.8 2.2 2.3 1.5 4 3.5 5.2 6.1 1.3 2.7 1.9 5.8 1.9 9.5 0.1 3.9-0.6 7.3-1.8 10.3z"/>
		<path class="st2" d="m509.3 988.9-13.9-3.2c-4.3-1-7.2-2.3-8.5-4-1.5-1.7-2.2-3.8-2.2-6.1 0-2.1 0.5-3.8 1.6-5.4s2.7-2.9 4.9-3.9c2.3-1 5.1-1.5 8.5-1.5 4.3 0 7.9 0.9 11 2.7 3 1.7 5.7 4.6 8.2 8.8l6.6-5.1c-2.7-4.5-6.1-7.9-10.2-10.1-4.1-2.3-9-3.5-14.6-3.5-5 0-9.3 0.9-12.9 2.7-3.5 1.7-6.3 4.1-8.3 7.1-1.8 2.8-2.8 6-2.8 9.5 0 2.6 0.5 4.9 1.6 7.1s2.8 4 5.2 5.6 5.7 2.8 9.6 3.7l15.1 3.4c3.8 0.9 6.3 2.1 7.7 3.8 1.3 1.6 2.1 3.5 2.1 5.6 0 2.3-0.6 4.3-1.9 5.8s-3.2 2.8-5.6 3.7c-2.4 0.7-5.2 1.2-8.5 1.2-3.5 0-6.7-0.5-9.5-1.6-2.7-1.1-5.1-2.6-7.1-4.4-1.9-1.8-3.5-4-4.7-6.6l-6.8 5.6c1.6 2.7 3.7 5.1 6.2 7.2 2.6 2.1 5.6 3.9 9 5.1 3.5 1.2 7.7 1.8 12.4 1.8 5 0 9.4-0.7 13-2.3 3.7-1.6 6.6-3.8 8.5-6.6 2.1-2.8 3.2-6.1 3.2-9.7 0-4.1-1.2-7.5-3.7-10.2-2.7-2.8-7.1-4.8-13.2-6.2z"/>
		<path class="st2" d="m601.1 1000.9c0 2.8-0.4 5.4-1.2 7.4-0.7 2.1-1.8 3.8-3.3 5.1-1.3 1.3-2.9 2.3-4.6 2.9s-3.5 0.9-5.4 0.9c-3.9 0-6.9-0.9-9-2.7-2.2-1.8-3.2-5.2-3.2-10.2v-30h-7.8v31.9c0 4.3 0.9 7.7 2.6 10.3s4 4.5 6.7 5.6c2.8 1.2 5.7 1.7 8.9 1.7 3.9 0 7.3-0.6 10.1-1.9 2.9-1.3 5.2-3.5 6.9-6.5l0.5 7.4h6.8v-48.7h-7.8v26.7h-0.2z"/>
		<path class="st2" d="m527.5 916.9c-2.7 0.9-6.1 1.3-10.1 1.3-4.6 0-9.1-0.7-13.4-2.1-4.1-1.5-7.9-3.4-11.2-5.8s-6.1-5.2-8.3-8.3l-11.5 13.5c2.9 3.7 6.6 6.9 11 9.7s9.4 5.1 14.9 6.7c5.6 1.6 11.8 2.3 18.5 2.3 7.7 0 14.5-1.2 20.5-3.5 6-2.4 10.6-5.8 13.9-10.3 3.3-4.6 5-10 5-16.3 0-6.7-2.1-12.2-6.3-16.3-4.1-4.3-11-7.5-20.5-9.6l-18-4.1c-5-1.2-8.5-2.7-10.5-4.4-2.1-1.8-3-4.1-3-6.7 0-2.2 0.6-4.1 1.7-5.8 1.2-1.7 3.2-3.2 5.8-4.3 2.7-1.1 6.1-1.6 10.2-1.6 6.2 0 11.7 1.2 16.3 3.7 4.7 2.3 9.1 6.1 13.2 11.1l11.2-13c-4.6-6-10.3-10.5-16.9-13.4s-14.4-4.5-23.1-4.5c-8.3 0-15.3 1.3-21.3 4.1-5.8 2.7-10.3 6.2-13.4 10.8-3.2 4.6-4.6 9.7-4.6 15.5 0 4.7 1 8.9 3 12.4 2.2 3.4 5.2 6.2 9.3 8.5 4.1 2.2 9 3.9 14.6 5.2l19.7 4.3c4.6 1 7.7 2.4 9.4 4.3 1.7 1.7 2.7 3.9 2.7 6.5s-0.7 4.5-2.2 6.3c-1.7 1.4-3.8 2.8-6.6 3.8z"/>
		<path class="st2" d="m980.9 875.1c-2.7-5.1-6.7-9.3-11.8-12.2-5.1-3-11.4-4.5-18.9-4.5s-13.6 1.5-19.2 4.5-9.9 7.3-13 13c-3.2 5.6-4.6 12.4-4.6 20.5 0 8 1.6 14.9 4.6 20.5 3.2 5.6 7.5 10 13.2 13s12.4 4.5 20.2 4.5c5 0 9.6-0.7 13.9-2.1 4.4-1.5 8.2-3.5 11.2-6.3 3.2-2.7 5.6-6 7.2-9.7l-16-6.1c-1.5 2.9-3.5 5.2-6.1 6.8-2.7 1.7-6.1 2.4-10.3 2.4-3.9 0-7.3-0.9-10.1-2.4-2.7-1.7-4.9-4.1-6.5-7.4-0.9-1.9-1.5-4.3-1.8-6.8h51.6c0.2-1.3 0.4-2.9 0.5-4.6s0.1-3.7 0.1-5.6c-0.1-6.7-1.4-12.5-4.2-17.5zm-40.5 0.7c2.7-1.7 6-2.7 9.6-2.7 5.1 0 9 1.7 11.7 5 2.3 2.7 3.7 6.2 4 10.7h-32.7c0.4-1.8 0.9-3.7 1.5-5.1 1.3-3.5 3.3-6.2 5.9-7.9z"/>
		<polygon class="st2" points="827 918.4 835.2 910 867.5 872.8 867.5 859.9 804.9 859.9 804.9 874.6 833.2 874.6 845.3 874.4 837.1 882.6 804.6 920 804.6 932.9 868.7 932.9 868.7 918.2 840.2 918.2"/>
		<path class="st2" d="m782.1 862.9c-5.6-3-12.1-4.5-19.5-4.5s-13.8 1.5-19.5 4.5c-5.6 3-10.1 7.3-13.3 13-3.2 5.6-4.6 12.4-4.6 20.5 0 8 1.6 14.7 4.6 20.5 3.2 5.6 7.7 10 13.3 13s12.2 4.5 19.5 4.5 13.9-1.5 19.5-4.5 10-7.3 13.2-13 4.9-12.5 4.9-20.5c0-7.9-1.6-14.9-4.9-20.5-3.2-5.6-7.6-9.9-13.2-13zm-4.2 46.4c-1.3 3.4-3.4 6-6 7.8-2.6 1.7-5.6 2.4-9.3 2.4s-6.8-0.9-9.5-2.4c-2.6-1.7-4.5-4.4-5.8-7.8s-2.1-7.7-2.1-12.9 0.7-9.5 2.1-12.9c1.3-3.4 3.3-6 5.8-7.5 2.7-1.7 5.8-2.7 9.5-2.7s6.7 0.9 9.3 2.7c2.7 1.7 4.6 4.1 6 7.5 1.3 3.4 2.1 7.7 2.1 12.9s-0.8 9.5-2.1 12.9z"/>
		<path class="st2" d="m905.4 919.7c-2.7 0-4.6-0.7-5.8-2.1s-1.7-3.8-1.7-7.2v-82.6h-20v84.7c0 7.5 1.6 13.2 4.9 16.7 3.3 3.4 8.5 5.1 15.6 5.1 2.4 0 4.9-0.2 7.3-0.9 2.6-0.5 4.6-1.2 6.3-2.2l1.7-13.2c-1.7 0.5-3 0.9-4.1 1.2-1.3 0.3-2.6 0.5-4.2 0.5z"/>
		<rect class="st2" x="673.4" y="974.3" width="7.8" height="48.7"/>
		<path class="st2" d="m724.3 976.4c-3.5-2.1-7.5-3-12.2-3-4.6 0-8.6 1-12.2 3-3.5 2.1-6.3 5-8.4 8.8s-3 8.3-3 13.5 1 9.9 3 13.6c2.1 3.8 4.7 6.7 8.4 8.6s7.7 3 12.2 3 8.6-1 12.2-3c3.5-2.1 6.3-4.9 8.4-8.6 2.1-3.8 3-8.4 3-13.6s-1-9.7-3-13.5c-1.9-3.9-4.7-6.9-8.4-8.8zm1.7 32.3c-1.2 2.8-3 5-5.4 6.5-2.3 1.5-5.1 2.2-8.5 2.2s-6.1-0.7-8.5-2.2c-2.3-1.5-4.1-3.7-5.5-6.5-1.2-2.8-1.8-6.1-1.8-10s0.6-7.2 1.8-10c1.3-2.8 3.2-5 5.5-6.5s5.1-2.2 8.5-2.2 6.1 0.7 8.5 2.2 4.1 3.7 5.4 6.5c1.3 2.7 1.9 6.1 1.9 10s-0.5 7.2-1.9 10z"/>
		<path class="st2" d="m701.9 929.9c5.6-3 10-7.3 13.2-13s4.9-12.5 4.9-20.5c0-7.9-1.6-14.9-4.9-20.5-3.2-5.6-7.5-10-13.2-13-5.6-3-12.1-4.5-19.5-4.5s-13.8 1.5-19.5 4.5c-5.6 3-10.1 7.3-13.3 13-3.2 5.6-4.6 12.4-4.6 20.5 0 8 1.6 14.7 4.6 20.5 3.2 5.6 7.7 10 13.3 13s12.2 4.5 19.5 4.5 14-1.5 19.5-4.5zm-34.7-20.6c-1.3-3.4-2.1-7.7-2.1-12.9s0.7-9.5 2.1-12.9c1.3-3.4 3.3-6 5.8-7.5 2.7-1.7 5.8-2.7 9.5-2.7s6.7 0.9 9.3 2.7c2.7 1.7 4.6 4.1 6 7.5 1.3 3.4 2.1 7.7 2.1 12.9s-0.7 9.5-2.1 12.9c-1.3 3.4-3.4 6-6 7.8-2.6 1.7-5.6 2.4-9.3 2.4s-6.8-0.9-9.5-2.4c-2.5-1.8-4.5-4.4-5.8-7.8z"/>
		<path class="st2" d="m677.3 953.3c-1.7 0-3.2 0.6-4.3 1.7s-1.6 2.4-1.6 4.1 0.5 3.2 1.6 4.3 2.6 1.6 4.3 1.6 3.2-0.5 4.1-1.6c1.1-1.1 1.7-2.6 1.7-4.3s-0.6-3.2-1.7-4.1c-0.9-1.1-2.3-1.7-4.1-1.7z"/>
	</g>

</svg>
